HIERARCHY
ROOT Hips
{
    OFFSET   0.000000   0.000000   0.000000
    CHANNELS 6 Xposition Yposition Zposition Zrotation Xrotation Yrotation
    JOINT Chest
    {
        OFFSET   0.000000   8.007230   0.000000
        CHANNELS 3 Zrotation Xrotation Yrotation
        JOINT Chest2
        {
            OFFSET   0.000000  22.077100   0.000000
            CHANNELS 3 Zrotation Xrotation Yrotation
            JOINT Neck
            {
                OFFSET   0.000000  23.254800   0.000000
                CHANNELS 3 Zrotation Xrotation Yrotation
                JOINT Head
                {
                    OFFSET   0.000010  14.370000   1.956600
                    CHANNELS 3 Zrotation Xrotation Yrotation
                    End Site
                    {
                        OFFSET   0.000000  19.566000   0.000000
                    }
                }
            }
            JOINT LeftCollar
            {
                OFFSET   3.911900  19.017000  -0.467062
                CHANNELS 3 Zrotation Xrotation Yrotation
                JOINT LeftShoulder
                {
                    OFFSET  10.383700   0.000000   0.000000
                    CHANNELS 3 Zrotation Xrotation Yrotation
                    JOINT LeftElbow
                    {
                        OFFSET  26.662100   0.001193   0.000835
                        CHANNELS 3 Zrotation Xrotation Yrotation
                        JOINT LeftWrist
                        {
                            OFFSET  28.869000  -0.000058  -0.000075
                            CHANNELS 3 Zrotation Xrotation Yrotation
                            JOINT LeftFinger0
                            {
                                OFFSET   2.044660  -2.323460   3.252850
                                CHANNELS 3 Zrotation Xrotation Yrotation
                                JOINT LeftFinger01
                                {
                                    OFFSET   3.088130   0.000000   0.000000
                                    CHANNELS 3 Zrotation Xrotation Yrotation
                                    JOINT LeftFinger02
                                    {
                                        OFFSET   2.639450   0.000000   0.000000
                                        CHANNELS 3 Zrotation Xrotation Yrotation
                                        End Site
                                        {
                                            OFFSET   2.582190   0.000000   0.000000
                                        }
                                    }
                                }
                            }
                            JOINT LeftFinger1
                            {
                                OFFSET   8.364480   0.000000   3.252850
                                CHANNELS 3 Zrotation Xrotation Yrotation
                                JOINT LeftFinger11
                                {
                                    OFFSET   4.646920   0.000000   0.000000
                                    CHANNELS 3 Zrotation Xrotation Yrotation
                                    JOINT LeftFinger12
                                    {
                                        OFFSET   2.323460   0.000000   0.000000
                                        CHANNELS 3 Zrotation Xrotation Yrotation
                                        End Site
                                        {
                                            OFFSET   2.273050   0.000000   0.000000
                                        }
                                    }
                                }
                            }
                            JOINT LeftFinger2
                            {
                                OFFSET   8.364490   0.000016   1.078090
                                CHANNELS 3 Zrotation Xrotation Yrotation
                                JOINT LeftFinger21
                                {
                                    OFFSET   5.111620   0.000000   0.000000
                                    CHANNELS 3 Zrotation Xrotation Yrotation
                                    JOINT LeftFinger22
                                    {
                                        OFFSET   2.788150   0.000012   0.000000
                                        CHANNELS 3 Zrotation Xrotation Yrotation
                                        End Site
                                        {
                                            OFFSET   2.727660   0.000000   0.000000
                                        }
                                    }
                                }
                            }
                            JOINT LeftFinger3
                            {
                                OFFSET   7.899780   0.000014  -1.078090
                                CHANNELS 3 Zrotation Xrotation Yrotation
                                JOINT LeftFinger31
                                {
                                    OFFSET   4.646930   0.000000   0.000000
                                    CHANNELS 3 Zrotation Xrotation Yrotation
                                    JOINT LeftFinger32
                                    {
                                        OFFSET   2.323470   0.000000   0.000000
                                        CHANNELS 3 Zrotation Xrotation Yrotation
                                        End Site
                                        {
                                            OFFSET   2.273050   0.000000   0.000000
                                        }
                                    }
                                }
                            }
                            JOINT LeftFinger4
                            {
                                OFFSET   7.435090   0.000000  -3.252850
                                CHANNELS 3 Zrotation Xrotation Yrotation
                                JOINT LeftFinger41
                                {
                                    OFFSET   3.717550   0.000000   0.000000
                                    CHANNELS 3 Zrotation Xrotation Yrotation
                                    JOINT LeftFinger42
                                    {
                                        OFFSET   1.858770   0.000000   0.000000
                                        CHANNELS 3 Zrotation Xrotation Yrotation
                                        End Site
                                        {
                                            OFFSET   1.818440   0.000000   0.000000
                                        }
                                    }
                                }
                            }
                        }
                    }
                }
            }
            JOINT RightCollar
            {
                OFFSET  -3.911900  19.017000  -0.467063
                CHANNELS 3 Zrotation Xrotation Yrotation
                JOINT RightShoulder
                {
                    OFFSET -10.383700   0.000023   0.000000
                    CHANNELS 3 Zrotation Xrotation Yrotation
                    JOINT RightElbow
                    {
                        OFFSET -26.662100   0.001246   0.001011
                        CHANNELS 3 Zrotation Xrotation Yrotation
                        JOINT RightWrist
                        {
                            OFFSET -28.869000  -0.000026  -0.000078
                            CHANNELS 3 Zrotation Xrotation Yrotation
                            JOINT RightFinger0
                            {
                                OFFSET  -2.044660  -2.323490   3.252850
                                CHANNELS 3 Zrotation Xrotation Yrotation
                                JOINT RightFinger01
                                {
                                    OFFSET  -3.088130   0.000000   0.000000
                                    CHANNELS 3 Zrotation Xrotation Yrotation
                                    JOINT RightFinger02
                                    {
                                        OFFSET  -2.639460   0.000000   0.000000
                                        CHANNELS 3 Zrotation Xrotation Yrotation
                                        End Site
                                        {
                                            OFFSET  -2.582190   0.000000   0.000000
                                        }
                                    }
                                }
                            }
                            JOINT RightFinger1
                            {
                                OFFSET  -8.364480   0.000000   3.252850
                                CHANNELS 3 Zrotation Xrotation Yrotation
                                JOINT RightFinger11
                                {
                                    OFFSET  -4.646920   0.000000   0.000000
                                    CHANNELS 3 Zrotation Xrotation Yrotation
                                    JOINT RightFinger12
                                    {
                                        OFFSET  -2.323470   0.000000   0.000000
                                        CHANNELS 3 Zrotation Xrotation Yrotation
                                        End Site
                                        {
                                            OFFSET  -2.273050   0.000000   0.000000
                                        }
                                    }
                                }
                            }
                            JOINT RightFinger2
                            {
                                OFFSET  -8.364480   0.000000   1.078090
                                CHANNELS 3 Zrotation Xrotation Yrotation
                                JOINT RightFinger21
                                {
                                    OFFSET  -5.111620   0.000000   0.000000
                                    CHANNELS 3 Zrotation Xrotation Yrotation
                                    JOINT RightFinger22
                                    {
                                        OFFSET  -2.788160   0.000000   0.000000
                                        CHANNELS 3 Zrotation Xrotation Yrotation
                                        End Site
                                        {
                                            OFFSET  -2.727660   0.000000   0.000000
                                        }
                                    }
                                }
                            }
                            JOINT RightFinger3
                            {
                                OFFSET  -7.899780   0.000000  -1.078090
                                CHANNELS 3 Zrotation Xrotation Yrotation
                                JOINT RightFinger31
                                {
                                    OFFSET  -4.646930   0.000000   0.000000
                                    CHANNELS 3 Zrotation Xrotation Yrotation
                                    JOINT RightFinger32
                                    {
                                        OFFSET  -2.323470   0.000000   0.000000
                                        CHANNELS 3 Zrotation Xrotation Yrotation
                                        End Site
                                        {
                                            OFFSET  -2.273050   0.000000   0.000000
                                        }
                                    }
                                }
                            }
                            JOINT RightFinger4
                            {
                                OFFSET  -7.435090   0.000000  -3.252850
                                CHANNELS 3 Zrotation Xrotation Yrotation
                                JOINT RightFinger41
                                {
                                    OFFSET  -3.717550   0.000000   0.000000
                                    CHANNELS 3 Zrotation Xrotation Yrotation
                                    JOINT RightFinger42
                                    {
                                        OFFSET  -1.858760   0.000000   0.000000
                                        CHANNELS 3 Zrotation Xrotation Yrotation
                                        End Site
                                        {
                                            OFFSET  -1.818440   0.000000   0.000000
                                        }
                                    }
                                }
                            }
                        }
                    }
                }
            }
        }
    }
    JOINT LeftHip
    {
        OFFSET   9.783010   0.000000   0.000000
        CHANNELS 3 Zrotation Xrotation Yrotation
        JOINT LeftKnee
        {
            OFFSET   0.000073 -41.789100   0.001749
            CHANNELS 3 Zrotation Xrotation Yrotation
            JOINT LeftAnkle
            {
                OFFSET   0.000111 -41.133200  -0.000179
                CHANNELS 3 Zrotation Xrotation Yrotation
                JOINT LeftToe
                {
                    OFFSET   0.000000  -6.358960  14.674500
                    CHANNELS 3 Zrotation Xrotation Yrotation
                    End Site
                    {
                        OFFSET   0.000000   0.000000   3.913200
                    }
                }
            }
        }
    }
    JOINT RightHip
    {
        OFFSET  -9.783010   0.000000   0.000000
        CHANNELS 3 Zrotation Xrotation Yrotation
        JOINT RightKnee
        {
            OFFSET   0.000424 -41.789200   0.005205
            CHANNELS 3 Zrotation Xrotation Yrotation
            JOINT RightAnkle
            {
                OFFSET   0.000000 -41.133200  -0.000155
                CHANNELS 3 Zrotation Xrotation Yrotation
                JOINT RightToe
                {
                    OFFSET   0.000000  -6.358960  14.674500
                    CHANNELS 3 Zrotation Xrotation Yrotation
                    End Site
                    {
                        OFFSET   0.000000   0.000000   3.913200
                    }
                }
            }
        }
    }
}
MOTION
Frames: 4
Frame Time:   0.016667
 -0.813269  89.571800   1.362400  -3.314640  -9.168450  -3.046180   0.491476   5.843840  -0.077992   0.998855  11.686800  -0.208327   0.616145  -0.940854   0.010557   1.002200  -1.896180   8.511160  -5.246330  -0.950041   1.891040 -72.412000  10.539200   1.430620  -0.575579  -0.201569 -21.234800  12.097900  -2.650360  -3.033360  41.997600  35.206700 -72.419000 -26.345500  -0.000838   0.011318  -8.172770  -0.003547  -0.014479 -27.279300   5.516330 -10.559400 -22.736900   0.000968   0.000000 -15.915800  -0.006393  -0.000380 -27.710300  -0.682668   1.305460 -30.349600   0.002516  -0.001805 -20.212800   0.001525   0.000521 -28.042100  -0.693673   1.301470 -32.392900  -0.002392   0.005930 -21.579700   0.000632   0.000282 -29.287700  -0.721354   1.286330 -43.943700   0.001051  -0.000595 -29.266500   0.001013  -0.000729   8.557800   1.054690   8.337980  67.585100   9.833930  -7.592310  -3.675390  -2.184630  17.033300  -8.899440 -10.898700   3.859570 -53.492600  44.166700  85.544700  22.698800   0.002278  -0.010791   6.349400   0.000879  -0.002153  46.082500  11.453500  10.822100  38.594600   0.004415   0.011927  28.492100   0.008009   0.005908  36.426300   4.708190   6.348250  54.084600  -0.003131  -0.003690  36.204400  -0.001226   0.003513  40.354200   2.725210   3.189110  54.350500  -0.002018  -0.003064  37.410400  -0.000518   0.004068  49.673200  -4.393770  -3.718940  74.723700  -0.001583   0.003694  49.766000   0.001161  -0.000943   3.672630  10.561000   0.366409   1.730180   1.398250  11.579600  -2.036780  -3.075230   0.506302  -0.000000   0.000000  -0.000000   2.945940  10.783000  -1.699640   0.332354   0.411463 -18.980400   0.602722  -2.419520   8.176630   0.000000   0.000000   0.000000
 -0.805435  89.572100   1.357720  -3.315090  -9.178030  -3.046260   0.491355   5.843800  -0.083519   0.999197  11.686700  -0.219453   0.616146  -0.940856   0.010539   1.002040  -1.900560   8.489390  -5.246650  -0.949702   1.909450 -72.443300  10.520900   1.451030  -0.572737  -0.209160 -21.217000  12.122800  -2.650360  -3.034820  41.989800  35.209500 -72.425000 -26.353200  -0.000843   0.011319  -8.176620  -0.003547  -0.014485 -27.280100   5.511800 -10.551400 -22.737000   0.000971  -0.000000 -15.915800  -0.006393  -0.000372 -27.710300  -0.682942   1.305830 -30.355100   0.002516  -0.001805 -20.216500   0.001522   0.000522 -28.042100  -0.693868   1.301830 -32.391800  -0.002392   0.005930 -21.580000   0.000631   0.000282 -29.283500  -0.721568   1.286690 -43.937400   0.001053  -0.000596 -29.262300   0.001011  -0.000730   8.587840   1.033130   8.338530  67.585500   9.808430  -7.613490  -3.686730  -2.174820  17.045800  -8.900140 -10.885400   3.844260 -53.488300  44.167400  85.524900  22.711500   0.002279  -0.010795   6.355760   0.000880  -0.002164  46.073100  11.453400  10.825800  38.587200   0.004412   0.011927  28.484800   0.008008   0.005907  36.447200   4.708290   6.344110  54.084700  -0.003137  -0.003693  36.211500  -0.001229   0.003513  40.368600   2.725040   3.188860  54.350600  -0.002024  -0.003069  37.414700  -0.000518   0.004072  49.673300  -4.394000  -3.719170  74.723900  -0.001587   0.003690  49.766100   0.001157  -0.000940   3.665230  10.565800   0.370181   1.730630   1.395680  11.581400  -2.037070  -3.070690   0.506294  -0.000000   0.000000   0.000000   2.945990  10.804500  -1.695620   0.331303   0.390896 -18.984400   0.601332  -2.408660   8.169440   0.000000   0.000000  -0.000000
 -0.792683  89.572700   1.350030  -3.315870  -9.194530  -3.046400   0.491215   5.843770  -0.091136   0.999702  11.686500  -0.234797   0.616146  -0.940869   0.010498   1.001470  -1.907700   8.456560  -5.249690  -0.949361   1.931830 -72.486400  10.502600   1.481260  -0.568625  -0.225143 -21.186300  12.157800  -2.650350  -3.039610  41.976800  35.215500 -72.438500 -26.366500  -0.000848   0.011321  -8.183220  -0.003552  -0.014494 -27.281800   5.505250 -10.537700 -22.737300   0.000974   0.000000 -15.916000  -0.006394  -0.000354 -27.710200  -0.683216   1.306190 -30.365600   0.002515  -0.001804 -20.223500   0.001519   0.000523 -28.042200  -0.694063   1.302200 -32.390800  -0.002393   0.005930 -21.580200   0.000631   0.000283 -29.277300  -0.721782   1.287040 -43.928100   0.001056  -0.000596 -29.256100   0.001009  -0.000731   8.638180   0.996384   8.342710  67.585800   9.782920  -7.634670  -3.707210  -2.165010  17.058300  -8.897120 -10.872300   3.826190 -53.483200  44.174800  85.504000  22.740800   0.002286  -0.010807   6.370390   0.000883  -0.002181  46.063600  11.453200  10.829600  38.579800   0.004402   0.011924  28.477500   0.008005   0.005905  36.481500   4.708470   6.337280  54.084700  -0.003145  -0.003700  36.223200  -0.001241   0.003517  40.388600   2.724800   3.188610  54.350900  -0.002035  -0.003082  37.420800  -0.000524   0.004087  49.673400  -4.394220  -3.719480  74.724100  -0.001599   0.003681  49.766300   0.001148  -0.000929   3.653980  10.576200   0.376646   1.731370   1.390410  11.585500  -2.037380  -3.062610   0.506284  -0.000000   0.000000   0.000000   2.945350  10.826000  -1.687920   0.330262   0.370325 -18.990300   0.602692  -2.397810   8.159440  -0.000000   0.000000  -0.000000
 -0.783239  89.573900   1.344230  -3.317240  -9.208420  -3.051080   0.491236   5.846300  -0.093965   1.000040  11.691600  -0.240545   0.611904  -0.942703   0.010442   0.996850  -1.912520   8.434060  -5.258130  -0.950191   1.934770 -72.501900  10.504700   1.497790  -0.566025  -0.245520 -21.157900  12.173000  -2.643590  -3.048450  41.963000  35.225300 -72.461800 -26.380800  -0.000848   0.011326  -8.190380  -0.003564  -0.014497 -27.299500   5.501730 -10.522500 -22.750900   0.000972   0.000000 -15.925500  -0.006397  -0.000331 -27.710200  -0.683149   1.304410 -30.380100   0.002514  -0.001802 -20.233100   0.001520   0.000526 -28.042200  -0.693107   1.300430 -32.392900  -0.002394   0.005931 -21.578800   0.000634   0.000285 -29.274500  -0.720737   1.285320 -43.923900   0.001057  -0.000594 -29.253300   0.001012  -0.000730   8.678680   0.965792   8.356760  67.580300   9.809720  -7.628510  -3.724220  -2.202910  17.035600  -8.887420 -10.880000   3.823080 -53.445500  44.193700  85.549100  22.784900   0.002309  -0.010822   6.392470   0.000889  -0.002196  46.098600  11.453700  10.815700  38.607400   0.004384   0.011916  28.504400   0.007998   0.005899  36.514900   4.708640   6.330640  54.084600  -0.003149  -0.003707  36.234600  -0.001262   0.003528  40.396700   2.724700   3.189240  54.350900  -0.002048  -0.003103  37.423300  -0.000537   0.004111  49.673000  -4.394170  -3.719620  74.723600  -0.001618   0.003668  49.765900   0.001133  -0.000913   3.647360  10.589400   0.381510   1.729080   1.384690  11.592600  -2.035520  -3.054920   0.506758  -0.000000   0.000000   0.000000   2.942450  10.815700  -1.679970   0.324783   0.420798 -18.992900   0.617610  -2.423090   8.155510  -0.000000   0.000000  -0.000000
